<svg width="12" height="11" viewBox="0 0 12 11" fill="none" xmlns="http://www.w3.org/2000/svg">
<path d="M11.3815 4.08249C11.3006 3.82968 11.059 3.65592 10.7187 3.60572L8.01968 3.20734L6.81266 0.723356C6.66043 0.410124 6.42307 0.230469 6.16138 0.230469C5.8997 0.230469 5.66234 0.410124 5.51013 0.723356L4.30315 3.20732L1.60411 3.6057C1.26374 3.6559 1.02217 3.82968 0.941292 4.08245C0.860434 4.33523 0.955315 4.62002 1.20156 4.86383L3.15459 6.79731L2.69353 9.52757C2.63291 9.88669 2.73587 10.1015 2.83295 10.2184C2.94648 10.3551 3.11211 10.4305 3.29933 10.4305C3.44088 10.4305 3.59162 10.3883 3.74729 10.3052L6.16138 9.0161L8.57548 10.3051C8.73119 10.3883 8.88191 10.4304 9.02348 10.4304H9.02352C9.21076 10.4304 9.37639 10.3551 9.48993 10.2183C9.58698 10.1015 9.68996 9.88667 9.62932 9.52752L9.1682 6.79733L11.1212 4.86387C11.3675 4.62006 11.4624 4.33525 11.3815 4.08249Z" fill="#FF8412"/>
</svg>
